<svg xmlns="http://www.w3.org/2000/svg" viewBox="0 0 720 430" role="img" aria-labelledby="title desc">
<title>La Trattoria — établissement recommandé Petit Futé 2026</title><desc>Visuel Petit Futé 2026 fourni pour présenter la recommandation de l'établissement.</desc>
<rect width="720" height="430" rx="28" fill="#fbfbf8"/><rect x="18" y="18" width="684" height="394" rx="23" fill="#efb2ae" stroke="#262626" stroke-width="3"/><rect x="48" y="48" width="624" height="334" rx="17" fill="#fffdf9"/>
<path d="M86 102c25-42 73-48 92-18 15 23-4 53-32 43-20-7-32-15-60-25z" fill="#b42c24"/><path d="M89 102c19-9 33-28 37-48 18 12 28 33 25 51" fill="none" stroke="#171717" stroke-width="8" stroke-linecap="round"/><path d="M82 106c-18 17-28 25-38 29" fill="none" stroke="#171717" stroke-width="7" stroke-linecap="round"/>
<text x="205" y="112" fill="#171717" font-family="Arial Black,Arial,sans-serif" font-size="66" font-weight="900" letter-spacing="-3">petit futé</text><text x="205" y="166" fill="#b51e24" font-family="Arial,sans-serif" font-size="26" font-weight="700">ÉTABLISSEMENT RECOMMANDÉ</text><text x="205" y="246" fill="#171717" font-family="Arial Black,Arial,sans-serif" font-size="82" font-weight="900">2026</text>
<path d="M74 291h572" stroke="#e7d8d4" stroke-width="2"/><text x="82" y="328" fill="#252525" font-family="Arial,sans-serif" font-size="22" font-weight="700">La Trattoria · Saintes</text><text x="82" y="357" fill="#4f4f4f" font-family="Arial,sans-serif" font-size="16">Cuisine italienne faite maison · pâte maturée 48 h</text><rect x="550" y="314" width="82" height="48" rx="9" fill="#b51e24"/><text x="591" y="345" text-anchor="middle" fill="#fff" font-family="Arial,sans-serif" font-size="15" font-weight="700">PETIT FUTE</text>
</svg>
